<?xml version="1.0" encoding="utf-8"?>
<!-- Generator: Adobe Illustrator 22.0.0, SVG Export Plug-In . SVG Version: 6.00 Build 0)  -->
<svg version="1.1" xmlns="http://www.w3.org/2000/svg" xmlns:xlink="http://www.w3.org/1999/xlink" x="0px" y="0px"
	 viewBox="0 0 1100 800" style="enable-background:new 0 0 1100 800;" xml:space="preserve">
<style type="text/css">
	.st0{display:none;}
	.st1{display:inline;fill:#FFFFFF;}
	.st2{opacity:0.5;}
	.st3{fill:#DCDCDC;}
	.st4{fill:#2D2D2D;}
	.st5{fill:#1F1F1F;}
	.st6{fill:#CACACA;}
	.st7{fill:#A9A9A9;}
	.st8{fill:#6F6F6F;}
	.st9{fill:#FFFFFF;}
	.st10{fill:#D3D3D3;}
	.st11{fill:#D4D4D4;}
	.st12{fill:#303030;}
	.st13{fill:#BFBFBF;}
	.st14{fill:none;}
	.st15{fill:#D0D0D0;}
	.st16{fill:#919191;}
	.st17{fill:#7E7E7E;}
	.st18{fill:#3F3F3F;}
	.st19{fill:#585858;}
	.st20{fill:#7C7C7C;}
</style>
<g id="Background" class="st0">
	<rect x="278" y="-270" class="st1" width="1100" height="800"/>
</g>
<g id="Shadow">
	<g class="st2">
		<path class="st3" d="M507,641.1c-28.2,0.1-56.4,0.8-84.5,3.9c-10.6,1.2-21,3.8-31.6,4.8c-21.2,2.1-42.1,6-63.4,7.8
			c-17.2,1.4-34.4,2.3-51.5,4.1c-16,1.7-33.8,1.3-49.7-1.5c-11.8-2.1-23.6-3.3-35.2-6.7c-13-3.8-27.1-6.5-40.6-6.4
			c-19.3,0.1-38,0.2-56.5,6.8c-6.5,2.3-14.4,6.2-19.3,11.1c-11.3,11.3-12.8,39.4-1.5,51.1c18.9,19.7,59.3,27.4,85.8,27.8
			c29.1,0.4,57.3-1.8,86.4-3c27-1.2,54-2.9,81.1-2.8c55.3,0.1,110.7,0,165.9-3.7c51.9-3.5,103.9-2.3,155.9-2.3
			c53.3,0,106.3,0.4,159.2,7.5c23.1,3.1,46.6,4.2,69.8,6.3c20.8,1.9,40.7,0,61.4-1.8c17.4-1.5,34.6-6,50.4-13.5
			c12.5-6,34.7-24.5,38.6-38.8c10.7-39.9-151.3-39-176.2-38.9c-27.8,0.1-55.9,1-83.7,0c-11.7-0.4-23.2-2.7-34.6-5.2
			c-11.4-2.5-22.8-1.9-34.4-2.9c-48.1-4.4-96.3-3.7-144.5-3.7C538.4,641.2,522.7,641.1,507,641.1z"/>
	</g>
</g>
<g id="Object">
	<g>
		<g>
			<g>
				<g>
					<g>
						<polygon class="st4" points="966.9,448.8 971.5,480.7 962.2,660.7 946.6,657.4 920.7,452.8 						"/>
					</g>
					<g>
						<polygon class="st4" points="890.2,442.8 887.2,562.1 917.5,665.1 935.1,658.5 920.3,566.7 933.9,441.8 						"/>
					</g>
					<g>
						<path class="st5" d="M935.2,648.9l-21.1,9.7l7.1,14.8l-11.1,7c0,0-1,6.2,2.7,8.8c3.7,2.6,27.9-17.7,27.9-17.7L935.2,648.9z"/>
					</g>
					<g>
						<path class="st5" d="M966.9,652.4l-22.9,3.9l3,16.1l-12.5,3.9c0,0-2.6,5.7,0.3,9.2c2.9,3.5,31.5-9.8,31.5-9.8L966.9,652.4z"/>
					</g>
				</g>
				<g>
					<path class="st4" d="M922.3,248.2c1.6,5.3,4,10.4,7,15.1c0.1-9.7,1.5-19.5,4.2-28.9c0.2-0.7,0.4-1.5,0-2.2
						c-0.3-0.6-1.1-0.8-1.8-1C919.7,228.4,919.4,239,922.3,248.2z"/>
				</g>
				<g>
					<g>
						<path class="st6" d="M928.9,263.5c1.3,4,3.3,8.5,7.5,11c4.9,2.9,10.1,1.4,13.8-0.8c12.1-7.3,33-47.6,1.5-57.5
							C923.2,207.2,923.7,246.9,928.9,263.5z"/>
					</g>
					<g>
						<path class="st4" d="M953.8,263.7c1.9,2.8,6.2,2.1,9.2,0.7c12.5-5.9,20.1-20.6,17.7-34.2c-2-11.4-16.1-20.2-19.3-6.2
							c-1.1,4.9,1.7,11.9,0.9,17.4C961.1,249.2,957.2,256.6,953.8,263.7z"/>
					</g>
					<g>
						<path class="st4" d="M923,201.7c-14.3,7.9-20.7,25.4-33.9,35.2c11.8,5.4,25.8,5.7,37.8,0.9c11.8-4.7,39.8-7.6,36.1-23.9
							C959.4,197.3,935.6,194.8,923,201.7z"/>
					</g>
				</g>
				<g>
					<path class="st7" d="M978.6,304.7c8.2,14.2,8.2,30.4,7,45.8c-2.6,34.9,0.8,75.4-11.3,108.8c-22.7,0-66.3-10.4-89-12.8
						c-4.4-30.4-1.8-48.1,0.6-82.5c1.2-17,3.9-39.7,9.9-55.9c4.9-13.2,18-30.3,37.8-29.8C952.3,278.9,971.2,291.7,978.6,304.7z"/>
				</g>
				<path class="st6" d="M941.6,285.5c-2.1,0.9-4.6,0.5-7.1-1.9c-2.1-2-1.5-2.7-1-5.7c0.7-4.4,1.8-8.9,2.8-13.3l12.2,2.5
					c0,0-2.5,11.9-2.6,12.7C945.3,282.5,943.7,284.6,941.6,285.5z"/>
			</g>
			<g>
				<polygon class="st6" points="819.2,317.1 809.6,307.7 794.6,308 792.8,315.7 815.6,325.5 				"/>
			</g>
			<g>
				<polygon class="st7" points="931.5,288.7 920.6,278.8 862,325.5 819.9,310.7 806.3,328 862.7,361.1 922.3,322.9 				"/>
			</g>
		</g>
		<g>
			<polygon class="st4" points="192.4,659.9 208,668.4 206.6,675.8 178.9,672 180.4,661.4 			"/>
			<polygon class="st4" points="121.8,667.9 110.9,667.8 108.3,677 108.6,677 108.5,677 126.6,687.4 135.1,688.3 136.1,678.5 
				133.7,676.9 			"/>
			<path class="st7" d="M155.3,494.8c1.7-0.2,6.5,62.3,6.5,62.3L128,670.5l-19.5-3.8l11.9-113.3c0,0-41.2-47.6-29.4-83.1
				C108.9,479,155.3,494.8,155.3,494.8z"/>
			<path class="st7" d="M203.9,495.3l3.9,55.7L197,661.8l-20.1-1c0,0-4.8-105-6.8-107.1c-2-2.1-19.1-57.2-19.1-57.2L203.9,495.3z"/>
			<g>
				<path class="st8" d="M177.6,520.7c-63.7-1.2-68.4-33.3-82.4-36.8c-14-3.5-6.7-20.2-6.7-20.2s2.7-7.5,3.8-11.3
					c8.2-28,32.7-64,32.7-64c12.1-16.5,24.3-31.1,34.8-39.9c31.2-26.2,64.7-27.4,64.7-27.4c48.2,15.1,31.2,37.7,31.7,43.7
					c-15.8,14.5-27.3,36.3-35.8,59.6c-4,12.4-8.7,33.7-5.4,59.7c1.1,8.3,2.3,15.5,3.5,21.8C218.7,513.9,210.8,521.2,177.6,520.7z"/>
				<path class="st9" d="M224.6,326c0,0,10.7-5.9,17.4,4.3c8.1,12.4-37.5,68.3-36.4,187.9c-11.9,2.4-42.7,8.2-74.4-6.8
					C138.3,475.9,169.4,368.8,224.6,326z"/>
			</g>
			<g>
				<path class="st4" d="M248.2,288.2c5.4,4.2,10.1,13.2,8.2,20.2c-0.9,3.4-3.3,5.7-4.2,9.3c-1.6,7.2-14.2,12.6-8.9,20.9
					c2.7,4.3,8,6.1,12.8,7.7c0.6,0.2,1.2,0.4,1.8,0.3c1-0.2,1.7-1.2,1.9-2.2c0.2-1,0-2-0.1-3c-1.1-10.6,6.1-21.2,8.7-31.2
					c2.6-10,2.5-21.4-4.4-29.7c-5.9,0.5-8.3-0.6-12.1,4L248.2,288.2z"/>
				<path class="st10" d="M235.5,330.6c7,0.6,13.9-3.3,18.3-8.8c4.5-5.5,6.8-12.3,8.3-19.2c4.9-22.9-23.2-30.4-38.1-16.3
					C211.2,298.5,215.1,329,235.5,330.6z"/>
				<path class="st4" d="M200.6,326.3c3.7-0.3,7.5-0.7,10.8-3.1c5.4-3.9,8.6-12.7,11.9-18.3c3.5-5.9,7.5-12.2,14-14.4
					c4.2-1.5,8-0.5,11.9,1.1c2.7,1.1,2.4,2.1,5.3,1.7c2.2-0.4,5.1-3.1,6.3-4.8c2.1-3,2.2-7,1.1-10.4c-1.7-5.3-4.8-8.9-9.7-11.1
					c-17.4-7.8-34.9-2.9-47.1,12.2c-5.8,7.2-7.9,17.2-13.8,24c-3.6,4.2-8.1,6.2-11.6,10.9c-9,12.1-23.7,26.3-29,40.6
					c-0.2,0.5-0.4,1.1-0.1,1.6c0.5,1,2,0.7,3.1,0.2c6-3,12-6,17.9-9c2.3-1.2,4.7-2.4,6.7-4.1c4.8-4.4,6.5-12,12.3-15
					C193.6,326.7,197.1,326.5,200.6,326.3z"/>
			</g>
			<g>
				<polygon class="st8" points="176.1,356.4 128.1,345.1 115.2,281.2 131.2,282.6 143.5,324.3 205.8,326.1 209.4,330.9 				"/>
			</g>
		</g>
		<path class="st11" d="M135.7,276.3l-1.6-16.7l-11.9-9.1l-0.7,4.9l4.2,4.2c0,0,1,4.9,4,7.3c-0.3,2.8-2.6,8.7-2.6,8.7L135.7,276.3z"
			/>
		<g>
			<g>
				<g>
					<g>
						<path class="st12" d="M417.8,654.5l13.8,8.8l4.8,7c0,0-4.9,2.5-7.7,3.1c-2.8,0.7-24.6-1.6-24.6-1.6l-0.6-12.8L417.8,654.5z"/>
					</g>
					<g>
						<path class="st12" d="M349,664.2l6.8,7.6c0,0,5.5,10.3,2.8,10.2c-2.8-0.2-17.9,0.7-18.9-1.1c-1-1.7-9-7.8-10.1-8.9
							c-1-1.2,0-10.9,0-10.9L349,664.2z"/>
					</g>
					<g>
						<path class="st13" d="M387.9,461.2l-17.1,104l-21.8,99l-19.4-1.1l3.7-104.5c0,0-14-96.1-14.1-124.5L387.9,461.2z"/>
					</g>
					<g>
						<polygon class="st13" points="430.9,466.3 423,658.2 403,659.1 392.4,561.6 376.9,475.6 418.2,422.3 						"/>
					</g>
					<g>
						<g>
							<polygon class="st14" points="329.4,301 329.4,301 329.4,301 							"/>
						</g>
						<g>
							<path class="st7" d="M420.4,365.3c-10.5-51,2.8-75.6-20.1-89.8c0,0-37.4-10.3-61.2,6.8c-0.3,0.2-0.7,0.5-1,0.7l-8.7,18
								l-6.6,80.7c0,0-18.4,106-8.6,106.8c11.1,1,61.8-22.7,71.4-22.1c9.6,0.6,39.1,5.8,66.9-3.6
								C476.4,454.7,430.9,416.3,420.4,365.3z"/>
						</g>
					</g>
					<g>
						<polygon class="st9" points="373.9,273.9 366.6,274.1 365.8,281.4 392.6,356.2 398.6,323.8 392,276.8 						"/>
					</g>
					<g>
						<polygon class="st9" points="395.8,384.9 385.5,466.3 407.2,469.3 422.3,468.2 403.3,397.6 						"/>
					</g>
					<g>
						<g>
							<path class="st15" d="M383.7,277.1c-5,0.2-10,0.4-15,0.6c-0.6-3.9-0.9-7.9-0.9-11.9c-4.3-0.9-9.3-2.4-10.7-6.5
								c-0.4-1.3-0.4-2.7-0.3-4.1c0.2-5.7-1.4-11.5,0.5-17.1c0.6-1.9,0.1-4,1-5.8c1.4-3.2,4.8-4.9,8.1-6c8.4-2.7,18.1-2.2,25.6,2.5
								c2,1.3,3.9,2.8,5,4.9c1.7,3.2,1.3,7.1,0.9,10.7c-0.4,3.3-0.8,6.7-1.2,10c-0.4,3.8-1.3,8.2-4.6,10.1c-1.8,1-4,1.1-5.6,2.4
								C383.8,269.2,384.8,273.7,383.7,277.1z"/>
						</g>
						<g>
							<path class="st4" d="M405.1,202.9c-1.1-0.1-2.3-0.2-3.4-0.6c-3.7-1.3-6.5-4.2-10.5-5.3c-8-2.3-17.6-1.1-25,2.8
								c-7,3.7-16.8,5.7-23,10.3c-2.6,1.9-4.5,4.7-5.8,7.6c-4.7,10.1-2.9,22.9,4.3,31.4c1.6,1.9,3.5,3.6,5.4,5.2
								c4,3.3,8.8,7.4,13.8,8.1c-0.5-4.3-6.3-17.3-3.5-21.2c3.7-5.3,11.8-5.8,17.7-5.8c7,0.1,12.5-2.6,19.4-2.9
								c3.5-0.1,7.6,0.2,10.1-2.2c2.9-2.9,8.8-11.7,10-15.5c1.1-3.3-0.1-7.2-2.7-9.5C409.7,203.2,407.5,203.1,405.1,202.9z"/>
						</g>
					</g>
				</g>
				<g>
					<path class="st7" d="M452,315.3l-45.3-41l-10.9,9.2l37.5,62.6l16.9,1.6c0,0,4.9-17.4,5.9-19.3L452,315.3z"/>
				</g>
			</g>
			<g>
				<g>
					<path class="st16" d="M344.3,464.4c-8.7-7.8-18.9-11.5-30.4-10.9c-11.5,0.6-21.3,5.3-29.1,14c-7.8,8.7-11.5,18.9-10.9,30.4
						c0.6,11.5,5.3,21.3,14,29.1c3.4,3.1,7.1,5.6,11,7.3c5.9,2.7,12.4,3.9,19.3,3.6c11.5-0.6,21.3-5.3,29.1-14
						c7.8-8.7,11.5-18.9,10.9-30.4C357.7,482,353,472.2,344.3,464.4z"/>
				</g>
				<g>
					<g>
						<path class="st17" d="M358.3,493.5c-0.6-11.5-5.3-21.3-14-29.1c-2.8-2.5-5.8-4.6-8.9-6.3c4.7,6.5,7.4,13.9,7.8,22.3
							c0.6,11.5-3.1,21.7-10.9,30.4c-7.8,8.7-17.6,13.4-29.1,14c-6.9,0.4-13.4-0.8-19.3-3.6c-0.7-0.3-1.5-0.7-2.2-1.1
							c1.8,2.4,3.8,4.7,6.2,6.8c3.4,3.1,7.1,5.6,11,7.3c5.9,2.7,12.4,3.9,19.3,3.6c11.5-0.6,21.3-5.3,29.1-14
							C355.2,515.2,358.9,505,358.3,493.5z"/>
					</g>
				</g>
				<g>
					<path class="st16" d="M671.8,312c-3.2-34.9-20.7-66.9-52.1-95.2c-31.4-28.3-65.2-42.6-100.5-42.4
						c-30.7,0.1-58.3,11.5-82.2,33.8c-4,3.8-6.3,9.1-6.2,14.6c0,5.5,2.4,10.8,6.5,14.5l18.7,16.8c7.5,6.7,18.8,6.8,26.3,0.1
						c13.3-11.8,27.3-17.6,42.5-17.8c18.5-0.1,37,8,55,24.2c17.9,16.2,27.7,33.8,28.9,52.5c1.2,18.6-6.2,36.9-22.1,54.5
						c-21.9,24.2-43.5,34.3-64.4,29.9c-22-4.6-48.3-21-78.4-48.6l-8.1-7.3c-8.1-7.3-20.5-6.6-27.8,1.4l-63.5,70.4
						c-3.5,3.9-5.3,9-5,14.2c0.3,5.3,2.6,10.1,6.5,13.6l18.9,17.1c1.5,1.4,3.2,2.5,5,3.3c7.6,3.5,16.9,1.8,22.8-4.7l41.1-45.6
						c0.5-0.6,1.4-0.6,2-0.1c36.2,30.9,70.3,47.5,101.6,49.4c33.3,2,65.1-13.6,94.8-46.5C661.6,381.4,675,347.1,671.8,312z"/>
				</g>
				<g>
					<g>
						<path class="st17" d="M671.8,312c-3.2-34.9-20.7-66.9-52.1-95.2c-19.4-17.5-39.8-29.6-60.8-36.3c9.9,6,19.6,13.3,29.1,21.8
							c31.4,28.3,48.9,60.3,52.1,95.2c3.2,35-10.2,69.4-39.7,102.1c-29.6,32.9-61.5,48.5-94.8,46.5c-9.6-0.6-19.5-2.6-29.6-5.9
							c21.4,12.4,41.9,19.2,61.3,20.4c33.3,2,65.1-13.6,94.8-46.5C661.6,381.4,675,347.1,671.8,312z"/>
					</g>
				</g>
			</g>
			<g>
				<polygon class="st7" points="347,277.7 325.5,284.3 274.1,371.9 277.6,388.8 344.2,422.1 353.5,404 311.5,371.9 337.2,336.9 
					347.1,280.8 				"/>
			</g>
			<g>
				<polygon class="st6" points="405.8,275 394.9,263.3 384.4,266.2 381.5,276.7 390.9,278.5 399.6,280.3 				"/>
			</g>
			<g>
				<polygon class="st15" points="352.6,405.8 363.1,407.9 361.4,414.1 370.5,424.7 358,429.2 345.8,418.9 				"/>
			</g>
		</g>
		<g>
			<g>
				<path class="st16" d="M132.7,335.4c-6.5,2-11.3,5.9-14.4,11.8c-3.1,5.9-3.7,12.1-1.7,18.6c2,6.5,5.9,11.3,11.8,14.4
					c5.9,3.1,12.1,3.7,18.6,1.7c2.6-0.8,4.9-1.9,6.9-3.3c3.1-2.1,5.6-5,7.5-8.5c3.1-5.9,3.7-12.1,1.7-18.6
					c-2-6.5-5.9-11.3-11.8-14.4C145.4,334,139.2,333.4,132.7,335.4z"/>
			</g>
			<g>
				<g>
					<path class="st17" d="M151.3,337.2c-5.9-3.1-12.1-3.7-18.6-1.7c-2.1,0.6-4,1.5-5.7,2.5c4.6-0.4,9.1,0.5,13.4,2.8
						c5.9,3.1,9.8,8,11.8,14.4c2,6.5,1.4,12.7-1.7,18.6c-1.9,3.5-4.4,6.4-7.5,8.5c-0.4,0.3-0.8,0.5-1.2,0.8c1.7-0.2,3.4-0.5,5.2-1
						c2.6-0.8,4.9-1.9,6.9-3.3c3.1-2.1,5.6-5,7.5-8.5c3.1-5.9,3.7-12.1,1.7-18.6C161.1,345.1,157.2,340.3,151.3,337.2z"/>
				</g>
			</g>
			<g>
				<path class="st16" d="M154.8,128c-18.2-8.8-39.3-9.7-62.6-2.6c-23.3,7.1-40.4,19.6-50.9,37.1c-9.1,15.2-11.7,32.3-7.7,50.7
					c0.7,3.1,2.6,5.8,5.4,7.4c2.7,1.6,6.1,2,9.1,1.1l13.9-4.2c5.5-1.7,8.9-7.3,7.9-13c-1.9-10.1-0.6-18.7,3.9-26.3
					c5.4-9.2,15-15.9,28.4-20c13.3-4.1,25-3.6,34.6,1.3c9.6,4.9,16.4,14.1,20.4,27.1c5.5,18,4,31.7-4.4,40.8
					c-8.8,9.5-24.8,17.7-47.4,24.3l-6,1.8c-6,1.8-9.4,8.2-7.6,14.2l15.9,52.4c0.9,2.9,2.8,5.3,5.5,6.7c2.7,1.4,5.8,1.7,8.7,0.8
					l14.1-4.3c1.1-0.3,2.2-0.9,3.1-1.5c4-2.7,5.9-7.8,4.5-12.7l-10.3-33.9c-0.1-0.4,0.1-0.9,0.5-1c26-8.7,44.4-20.7,54.7-35.6
					c10.9-15.9,12.6-36.3,5.2-60.7C186.1,153.7,173,136.9,154.8,128z"/>
			</g>
			<g>
				<g>
					<path class="st17" d="M154.8,128c-18.2-8.8-39.3-9.7-62.6-2.6c-14.4,4.4-26.5,10.9-36.1,19.3c5.9-3.1,12.4-5.8,19.5-7.9
						c23.3-7.1,44.4-6.2,62.6,2.6c18.3,8.9,31.3,25.7,38.7,50c7.4,24.4,5.7,44.9-5.2,60.7c-3.1,4.6-7.1,8.9-11.7,12.9
						c12.5-6.9,22-15,28.3-24.3c10.9-15.9,12.6-36.3,5.2-60.7C186.1,153.7,173,136.9,154.8,128z"/>
				</g>
			</g>
		</g>
		<g>
			<g>
				<path class="st16" d="M773.5,360.4c-8.2-1.2-15.6,0.7-22.1,5.6c-6.5,4.9-10.4,11.5-11.5,19.7c-1.2,8.2,0.7,15.6,5.6,22.1
					c4.9,6.5,11.5,10.4,19.7,11.5c3.2,0.5,6.4,0.4,9.4-0.1c4.6-0.8,8.8-2.6,12.8-5.6c6.5-4.9,10.4-11.5,11.5-19.7
					c1.2-8.2-0.7-15.6-5.6-22.1C788.3,365.4,781.6,361.6,773.5,360.4z"/>
			</g>
			<g>
				<g>
					<path class="st17" d="M793.2,371.9c-4.9-6.5-11.5-10.4-19.7-11.5c-2.6-0.4-5.2-0.4-7.7-0.2c5.3,1.9,9.8,5.3,13.4,10
						c4.9,6.5,6.8,14,5.6,22.1c-1.2,8.2-5,14.8-11.5,19.7c-3.9,2.9-8.2,4.8-12.8,5.6c-0.6,0.1-1.1,0.2-1.7,0.2
						c2,0.7,4.1,1.2,6.3,1.5c3.2,0.5,6.4,0.4,9.4-0.1c4.6-0.8,8.8-2.6,12.8-5.6c6.5-4.9,10.4-11.5,11.5-19.7
						C799.9,385.9,798,378.5,793.2,371.9z"/>
				</g>
			</g>
			<g>
				<path class="st16" d="M905.3,141.6c-15.7-19.2-38.6-31.1-68.2-35.2c-29.6-4.2-55,0.8-75.7,14.8c-18,12.2-29.7,29.8-34.8,52.3
					c-0.9,3.8-0.1,7.8,2.1,11c2.2,3.2,5.7,5.4,9.5,5.9l17.6,2.5c7,1,13.7-3.4,15.4-10.3c3.2-12.2,9-21.1,17.9-27.2
					c10.8-7.4,24.9-9.9,41.8-7.5c16.9,2.4,29.6,8.9,37.7,19.4c8.1,10.4,11,24.1,8.6,40.7c-3.2,22.9-12,37.3-25.9,43
					c-14.7,6-36.6,6.8-65.2,2.5l-7.6-1.1c-7.6-1.1-14.7,4.2-15.8,11.8l-9.4,66.4c-0.5,3.7,0.4,7.4,2.7,10.3c2.2,3,5.5,4.9,9.2,5.4
					l17.9,2.5c1.4,0.2,2.9,0.2,4.2,0c5.8-1,10.7-5.6,11.5-11.8l6.1-43c0.1-0.5,0.6-0.9,1.1-0.9c33.4,3.8,60,0.1,79.1-11.2
					c20.3-12,32.8-33.8,37.2-64.7C926.7,186.3,921,160.9,905.3,141.6z"/>
			</g>
			<g>
				<g>
					<path class="st17" d="M905.3,141.6c-15.7-19.2-38.6-31.1-68.2-35.2c-18.3-2.6-35-1.7-50,2.7c8.2-0.4,16.8,0,25.7,1.3
						c29.6,4.2,52.5,16.1,68.2,35.2c15.7,19.3,21.5,44.7,17.1,75.6c-4.4,31-16.9,52.8-37.2,64.7c-5.9,3.5-12.4,6.2-19.7,8.2
						c17.5-1.2,32.2-5.3,44-12.3c20.3-12,32.8-33.8,37.2-64.7C926.7,186.3,921,160.9,905.3,141.6z"/>
				</g>
			</g>
		</g>
		<g>
			<polygon class="st4" points="799.8,662.1 809.6,659.3 825.4,683.3 809.6,683.3 800.1,678.4 			"/>
			<path class="st18" d="M624.3,613.7c0,0-13.7,10.1-13.6,19c0,0-1.5,18.7,2.3,26.1l20.7,18.8l38.2-2.4l12.3-54.1L624.3,613.7z"/>
			<path class="st19" d="M666.2,625.7c0,0-16.5-3.9-22.1,7.4l-11.2,20.7l19.8,26.4l149.9-0.5l-0.3-17.9l-48.5-13.7
				c4.3-2.9,7.8-7.4,10-12c3.8-8.3,0.8-14.4-2.2-22.2c-0.9-2.4-5.5-15.6-9.4-14.5C752.1,599.4,666.2,625.7,666.2,625.7z"/>
			<g>
				<g>
					<polygon class="st20" points="577.9,420.8 570.9,408.4 576.1,405.2 582.7,412.6 584.4,410 589.1,421.3 584.2,425.3 					"/>
				</g>
				<g>
					<polygon class="st3" points="678.4,449.3 630.8,462.1 588.8,416.9 579.5,425.4 618.2,500.1 676.3,488.3 					"/>
				</g>
			</g>
			<g>
				<g>
					<path class="st3" d="M631.5,583.5c10.3-28.8,12.3-59.3,16.1-89.6c1.1-8.9,2.3-18,6.3-26.1c4.6-9.2,11.8-14,20.1-16.4
						c10.6-3.1,23-2.5,33.9-2.8c10.4,0,18.2,39.2,28.2,58.4c6.1,11.8,12.4,22.2,16.4,34.9c3.8,12.2,7.4,24.7,9.4,37.3
						c3.1,19.1,12,32.7,2.8,38.9c-0.8,0.2-1.6,0.5-2.4,0.7c-14.9,4.8-30.3,8.2-45.9,9.7c-13.8,1.4-27.8,1.2-41.6-0.6
						c-18.9-2.5-37.1-5.8-53.5-16.2C624.7,602.4,628.1,592.9,631.5,583.5z"/>
				</g>
			</g>
			<g>
				<path class="st20" d="M713.9,419.8c-5.3-18-31.1-25-37.8-4.5c-2,6.2-3.3,12.7-2.3,19.1c1,6.4,4.7,12.6,10.6,15.4
					c0,0,0.1,0,0.1,0c-0.3,1.6-0.6,3.3-0.9,4.9c-0.1,0.4-0.1,0.7,0.1,1c0.2,0.3,0.7,0.4,1.1,0.5c2,0.4,3.9,0.7,5.9,1.1
					c1,0.2,2,0.4,2.9,0.1c2.1-0.6,3-3,3.2-5.2c0-0.5,0.1-1,0.1-1.6C708.6,447.1,717.4,431.6,713.9,419.8z"/>
				<g>
					<path class="st4" d="M683.2,388.4c-4.7-0.9-8.9,3.6-13.4,5.9c-3.7,1.9-7.9,2.3-11.7,3.8c-3.8,1.5-7.7,4.9-7.9,9.3
						c-3.8-2.1-7.9-4.3-12.2-3.6c-4.3,0.7-8.5,5.7-6.9,10c1.4,3.8,6.3,4.9,7.8,8.7c2.4,6-4.9,14.9-0.3,19c1.1,1,2.7,1.3,3.8,2.3
						c1.4,1.2,1.8,3.3,2.3,5.2c2.6,8.4,10.8,14.1,19.1,13.3c5.2-2.2,9.5-7.1,11.5-12.7c2.4-6.8-1.2-9.3-1.6-15.8
						c-0.4-7.1,2-14.5,6.7-19.8c3-3.5,7.2-6.4,11.6-6.7c1.8-0.1,1.2,1.4,3.2,0c0.9-0.6,2.1-2.8,2.4-3.8
						C693.1,399.3,689.5,389.5,683.2,388.4z"/>
					<path class="st4" d="M734.4,399.2c2.4,0.8,5.1,0.7,7.4,1.8c3.5,1.7,3.1,5.3,4,8.5c1,3.5,2.4,8.3,4.7,11.1
						c1.6,2,3.9,3.2,5.9,4.8c2,1.6,3.8,3.9,3.6,6.6c-0.1,2.6-1.9,4.9-2.3,7.4c-0.4,3.8,0.2,5.8-1.1,9.7c-0.7,2-1.4,4.1-3,5.5
						c-2.1,1.8-4.9,1.6-7.4,1.1c-2.5-0.5-5.1-1.3-7.6-0.5c-5.4,1.6-4.6,7.1-6.2,11.6c-2.4,6.9-10.6,10.6-16.6,8
						c-5.1-2.3-8-8.4-7.5-14.4c0.2-3,1.5-5.7,1.7-8.7c0.2-2.9-1.3-6.9,1.4-9.1c0.7-0.5,1.5-0.8,2.1-1.4c0.5-0.5,0.8-1.2,0.9-1.9
						c0.6-2.4,0.2-5-1.2-6.9c-1-1.3-2.4-2.4-3-4c-0.7-1.8,0-3.9,0.2-5.9c0.4-4.8-2.1-9.7-6-11.7c-2.6-1.3-5-2.1-7.3-4.1
						c-0.3-0.3-5.5-5.2-5.7-4.1c0.3-1.8,1.4-3.3,2.5-4.6c1.8-2.3,3.8-4.5,6.2-5.8c7.9-4.2,8,6.2,14.3,5.1c1.5-0.3,2.7-1.6,4.1-2.4
						c2.6-1.5,5.8-0.8,8.3,0.4S731.6,398.4,734.4,399.2z"/>
				</g>
			</g>
		</g>
		<g>
			<g>
				<path class="st16" d="M592,612.7c-5.3-1.3-10.4-0.5-15,2.3c-4.6,2.8-7.6,6.9-8.9,12.3c-1.3,5.3-0.5,10.4,2.3,15
					c2.8,4.6,6.9,7.6,12.3,8.9c2.1,0.5,4.2,0.7,6.2,0.6c3.1-0.2,6-1.2,8.8-2.9c4.6-2.8,7.6-6.9,8.9-12.3c1.3-5.3,0.5-10.4-2.3-15
					C601.5,617,597.4,614,592,612.7z"/>
			</g>
			<g>
				<g>
					<path class="st17" d="M604.3,621.6c-2.8-4.6-6.9-7.6-12.3-8.9c-1.7-0.4-3.4-0.6-5.1-0.6c3.4,1.6,6.2,4.1,8.2,7.4
						c2.8,4.6,3.6,9.6,2.3,15c-1.3,5.3-4.3,9.5-8.9,12.3c-2.8,1.7-5.7,2.7-8.8,2.9c-0.4,0-0.8,0-1.1,0c1.3,0.6,2.6,1.1,4.1,1.4
						c2.1,0.5,4.2,0.7,6.2,0.6c3.1-0.2,6-1.2,8.8-2.9c4.6-2.8,7.6-6.9,8.9-12.3C607.9,631.2,607.1,626.2,604.3,621.6z"/>
				</g>
			</g>
			<g>
				<path class="st16" d="M692.8,476.6c-9.1-13.7-23.5-22.9-42.8-27.6c-19.2-4.6-36.4-2.9-50.9,5c-12.6,6.9-21.5,17.8-26.3,32.3
					c-0.8,2.4-0.6,5.1,0.7,7.4c1.3,2.3,3.4,3.9,5.9,4.5l11.5,2.8c4.6,1.1,9.2-1.4,10.8-5.8c2.9-7.9,7.3-13.4,13.5-16.8
					c7.6-4.2,17-5,28.1-2.3c11,2.6,19,7.7,23.7,15.2c4.7,7.4,5.7,16.6,3.1,27.4c-3.6,14.9-10.3,23.9-19.8,26.7
					c-10.1,3-24.6,2.2-43.2-2.5l-5-1.2c-5-1.2-9.9,1.9-11.1,6.8l-10.4,43.2c-0.6,2.4-0.2,4.9,1.1,7c1.3,2.1,3.3,3.6,5.7,4.2
					l11.6,2.8c0.9,0.2,1.9,0.3,2.8,0.2c3.9-0.3,7.4-3,8.4-7.1l6.7-28c0.1-0.3,0.4-0.6,0.8-0.5c21.8,4.6,39.6,3.8,52.9-2.4
					c14.1-6.6,23.8-20.2,28.6-40.4C704.2,507.5,702,490.4,692.8,476.6z"/>
			</g>
			<g>
				<g>
					<path class="st17" d="M692.8,476.6c-9.1-13.7-23.5-22.9-42.8-27.6c-11.9-2.9-23-3.3-33.2-1.3c5.4,0.2,11.1,1.1,16.9,2.5
						c19.3,4.6,33.6,13.9,42.8,27.6c9.2,13.7,11.3,30.9,6.5,51c-4.9,20.2-14.5,33.7-28.6,40.4c-4.1,1.9-8.6,3.3-13.5,4.2
						c11.6,0.3,21.6-1.5,29.8-5.3c14.1-6.6,23.8-20.2,28.6-40.4C704.2,507.5,702,490.4,692.8,476.6z"/>
				</g>
			</g>
		</g>
		<g>
			<g>
				<path class="st16" d="M255,208.2c-4.9-0.1-9.2,1.5-12.7,4.8c-3.5,3.3-5.4,7.5-5.5,12.4c-0.1,4.9,1.5,9.2,4.8,12.7
					c3.3,3.5,7.5,5.4,12.4,5.5c1.9,0.1,3.8-0.2,5.5-0.7c2.6-0.7,5-2.1,7.2-4.1c3.5-3.3,5.4-7.5,5.5-12.4c0.1-4.9-1.5-9.2-4.8-12.7
					C264,210.2,259.9,208.3,255,208.2z"/>
			</g>
			<g>
				<g>
					<path class="st17" d="M267.3,213.7c-3.3-3.5-7.5-5.4-12.4-5.5c-1.6,0-3.1,0.1-4.5,0.4c3.3,0.8,6.2,2.5,8.6,5
						c3.3,3.5,4.9,7.8,4.8,12.7c-0.1,4.9-2,9.1-5.5,12.4c-2.1,2-4.5,3.4-7.2,4.1c-0.3,0.1-0.7,0.2-1,0.2c1.2,0.3,2.5,0.5,3.8,0.5
						c1.9,0.1,3.8-0.2,5.5-0.7c2.6-0.7,5-2.1,7.2-4.1c3.5-3.3,5.4-7.5,5.5-12.4C272.3,221.5,270.7,217.2,267.3,213.7z"/>
				</g>
			</g>
			<g>
				<path class="st16" d="M318.3,70.3C307.8,60,293.4,54.5,275.7,54c-17.7-0.5-32.4,4.1-43.7,13.8c-9.8,8.4-15.5,19.6-17.1,33.2
					c-0.3,2.3,0.5,4.6,2,6.4c1.5,1.7,3.7,2.8,6,2.9l10.6,0.3c4.2,0.1,7.8-2.9,8.4-7.1c1.1-7.4,3.9-13.1,8.8-17.3
					c5.9-5.1,14-7.5,24.2-7.2c10.1,0.3,18.1,3.3,23.5,8.9c5.5,5.6,8.1,13.5,7.8,23.4c-0.4,13.7-4.6,22.8-12.5,27.1
					c-8.3,4.5-21.2,6.4-38.3,5.8l-4.6-0.1c-4.6-0.1-8.4,3.5-8.5,8l-1.2,39.8c-0.1,2.2,0.7,4.3,2.3,5.9c1.5,1.6,3.6,2.5,5.8,2.6
					l10.7,0.3c0.9,0,1.7-0.1,2.5-0.3c3.4-1,5.9-4,6-7.7l0.8-25.8c0-0.3,0.3-0.6,0.6-0.6c20,0,35.4-3.9,46-11.8
					c11.2-8.4,17.1-22.1,17.7-40.7C333.9,95.3,328.8,80.6,318.3,70.3z"/>
			</g>
			<g>
				<g>
					<path class="st17" d="M318.3,70.3C307.8,60,293.4,54.5,275.7,54c-11-0.3-20.8,1.3-29.4,4.9c4.8-0.8,9.9-1.1,15.3-0.9
						c17.7,0.5,32.1,6,42.6,16.3c10.6,10.3,15.6,25,15.1,43.5c-0.5,18.6-6.5,32.3-17.7,40.7c-3.2,2.4-6.9,4.5-11.1,6.2
						c10.2-1.9,18.6-5.3,25.2-10.2c11.2-8.4,17.1-22.1,17.7-40.7C333.9,95.3,328.8,80.6,318.3,70.3z"/>
				</g>
			</g>
		</g>
		<g>
			<g>
				<polygon class="st20" points="630.7,564.2 618.5,561.3 619.5,556 628.3,556.2 627.6,553.4 637.8,557.2 637.5,562.8 				"/>
			</g>
			<g>
				<polygon class="st3" points="711.5,513.9 691,553.5 634.8,554.8 634.7,566 701.5,579.2 725,541.8 				"/>
			</g>
		</g>
		<g>
			<path class="st8" d="M262.5,410.1l-5.5-60.9l-14.2-0.6l-9.7,46.9l-11.8,19.8l18.1,17.5c0,0,15.4-9.5,17.4-10.2L262.5,410.1z"/>
		</g>
		<g>
			<polygon class="st6" points="255.8,349.2 255.7,333.2 246,328.2 236.8,334 242.5,341.6 247.7,348.8 			"/>
		</g>
		<g>
			<path class="st7" d="M1006,318.8L989.2,260l-14.1,2.1l-1.2,73l13.5,10.3c0,0,13.3-12.2,15.2-13.3L1006,318.8z"/>
		</g>
		<g>
			<polygon class="st6" points="988,260.2 984.9,244.5 974.5,241.4 966.4,248.8 973.4,255.2 980,261.4 			"/>
		</g>
	</g>
</g>
</svg>
