<?xml version="1.0" encoding="UTF-8"?>
<svg width="17px" height="16px" viewBox="0 0 17 16" version="1.1" xmlns="http://www.w3.org/2000/svg" xmlns:xlink="http://www.w3.org/1999/xlink">
    <!-- Generator: Sketch 51.3 (57544) - http://www.bohemiancoding.com/sketch -->
    <title>Content</title>
    <desc>Created with Sketch.</desc>
    <defs>
        <polygon id="path-1" points="0.000132954789 0.066 16.742667 0.066 16.742667 7.8857 0.000132954789 7.8857"></polygon>
    </defs>
    <g id="Symbols" stroke="none" stroke-width="1" fill="none" fill-rule="evenodd">
        <g id="Icon---Address" transform="translate(-7.000000, -7.000000)">
            <g id="Content" transform="translate(7.000000, 7.000000)">
                <path d="M12.6294,8.2709 C12.6294,7.8659 12.9574,7.5389 13.3614,7.5389 C13.7664,7.5389 14.0944,7.8659 14.0944,8.2709 L14.0944,13.8019 C14.0944,15.0159 13.1104,15.9999 11.8974,15.9999 L4.9354,15.9999 C3.7214,15.9999 2.7374,15.0159 2.7374,13.8019 L2.7374,8.2709 C2.7374,7.8659 3.0664,7.5389 3.4704,7.5389 C3.8744,7.5389 4.2024,7.8659 4.2024,8.2709 L4.2024,13.8019 C4.2024,14.2069 4.5304,14.5349 4.9354,14.5349 L11.8974,14.5349 C12.3014,14.5349 12.6294,14.2069 12.6294,13.8019 L12.6294,8.2709 Z" id="Fill-1" fill="#393E39"></path>
                <mask id="mask-2" fill="white">
                    <use xlink:href="#path-1"></use>
                </mask>
                <g id="Clip-4"></g>
                <path d="M0.7114,7.8857 C0.5244,7.8857 0.3384,7.8127 0.1984,7.6667 C-0.0736,7.3837 -0.0646,6.9327 0.2184,6.6607 L7.8784,0.2647 C8.1534,-0.0003 8.5884,-0.0003 8.8634,0.2647 L16.5244,6.6607 C16.8074,6.9327 16.8164,7.3837 16.5444,7.6667 C16.2724,7.9497 15.8214,7.9597 15.5384,7.6867 L8.3714,1.7637 L1.2044,7.6867 C1.0654,7.8197 0.8894,7.8857 0.7114,7.8857" id="Fill-3" fill="#393E39" mask="url(#mask-2)"></path>
            </g>
        </g>
    </g>
</svg>