<?xml version="1.0" encoding="utf-8"?>
<!-- Generator: Adobe Illustrator 22.1.0, SVG Export Plug-In . SVG Version: 6.00 Build 0)  -->
<svg version="1.1" id="Calque_1" xmlns="http://www.w3.org/2000/svg" xmlns:xlink="http://www.w3.org/1999/xlink" x="0px" y="0px"
	 viewBox="0 0 17 16" style="enable-background:new 0 0 17 16;" xml:space="preserve">
<style type="text/css">
	.st0{fill:#96CFEE;}
	.st1{filter:url(#Adobe_OpacityMaskFilter);}
	.st2{fill:#FFFFFF;}
	.st3{mask:url(#mask-2_1_);fill:#96CFEE;}
</style>
<title>Content</title>
<desc>Created with Sketch.</desc>
<g id="Symbols">
	<g id="Icon---Address" transform="translate(-7.000000, -7.000000)">
		<g id="Content" transform="translate(7.000000, 7.000000)">
			<path id="Fill-1" class="st0" d="M12.6,8.3c0-0.4,0.3-0.7,0.7-0.7c0.4,0,0.7,0.3,0.7,0.7v5.5c0,1.2-1,2.2-2.2,2.2h-7
				c-1.2,0-2.2-1-2.2-2.2V8.3c0-0.4,0.3-0.7,0.7-0.7s0.7,0.3,0.7,0.7v5.5c0,0.4,0.3,0.7,0.7,0.7h7c0.4,0,0.7-0.3,0.7-0.7V8.3z"/>
			<g id="Clip-4">
			</g>
			<defs>
				<filter id="Adobe_OpacityMaskFilter" filterUnits="userSpaceOnUse" x="0" y="0.1" width="16.7" height="7.8">
					<feColorMatrix  type="matrix" values="1 0 0 0 0  0 1 0 0 0  0 0 1 0 0  0 0 0 1 0"/>
				</filter>
			</defs>
			<mask maskUnits="userSpaceOnUse" x="0" y="0.1" width="16.7" height="7.8" id="mask-2_1_">
				<g class="st1">
					<polygon id="path-1_1_" class="st2" points="0,0.1 16.7,0.1 16.7,7.9 0,7.9 					"/>
				</g>
			</mask>
			<path id="Fill-3" class="st3" d="M0.7,7.9c-0.2,0-0.4-0.1-0.5-0.2c-0.3-0.3-0.3-0.7,0-1l7.7-6.4c0.3-0.3,0.7-0.3,1,0l7.7,6.4
				c0.3,0.3,0.3,0.7,0,1c-0.3,0.3-0.7,0.3-1,0L8.4,1.8L1.2,7.7C1.1,7.8,0.9,7.9,0.7,7.9"/>
		</g>
	</g>
</g>
</svg>
