<?xml version="1.0" encoding="iso-8859-1"?>
<!-- Generator: Adobe Illustrator 22.0.0, SVG Export Plug-In . SVG Version: 6.00 Build 0)  -->
<svg version="1.1" id="Layer_1" xmlns="http://www.w3.org/2000/svg" xmlns:xlink="http://www.w3.org/1999/xlink" x="0px" y="0px"
	 viewBox="0 0 500 500" style="enable-background:new 0 0 500 500;" xml:space="preserve">
<g>
	<g>
		<path d="M437.488,136.422c-0.152-2.035-1.855-3.609-3.895-3.609h-70.313v-19.531C363.281,50.816,312.461,0,250,0
			S136.719,50.816,136.719,113.281v19.531H66.406c-2.039,0-3.742,1.574-3.895,3.609L35.168,495.797
			c-0.082,1.082,0.289,2.152,1.031,2.949c0.738,0.801,1.777,1.254,2.863,1.254h421.875c1.086,0,2.125-0.453,2.863-1.25
			c0.738-0.797,1.113-1.867,1.031-2.949L437.488,136.422z M167.969,113.281c0-45.23,36.797-82.031,82.031-82.031
			s82.031,36.801,82.031,82.031v19.531H167.969V113.281z M152.344,242.188c-21.543,0-39.063-17.523-39.063-39.063
			c0-15.59,7.813-29.637,23.438-35.801v35.801c0,8.617,7.012,15.625,15.625,15.625c8.613,0,15.625-7.008,15.625-15.625v-35.777
			c15.625,6.164,23.438,20.316,23.438,35.777C191.406,224.664,173.887,242.188,152.344,242.188z M347.656,242.188
			c-21.543,0-39.063-17.523-39.063-39.063c0-15.59,7.813-29.637,23.438-35.801v35.801c0,8.617,7.012,15.625,15.625,15.625
			s15.625-7.008,15.625-15.625v-35.777c15.625,6.164,23.438,20.316,23.438,35.777C386.719,224.664,369.199,242.188,347.656,242.188z
			"/>
	</g>
</g>
</svg>
