<?xml version="1.0" encoding="utf-8"?>
<!-- Generator: Adobe Illustrator 22.1.0, SVG Export Plug-In . SVG Version: 6.00 Build 0)  -->
<svg version="1.1" id="Calque_1" xmlns="http://www.w3.org/2000/svg" xmlns:xlink="http://www.w3.org/1999/xlink" x="0px" y="0px"
	 viewBox="0 0 37 33" style="enable-background:new 0 0 37 33;" xml:space="preserve">
<style type="text/css">
	.st0{opacity:0.5;fill:#FFFFFF;enable-background:new    ;}
</style>
<path class="st0" d="M32.5,10.2h-3.3l-7.4-9.5c-0.3-0.4-1-0.5-1.4-0.2s-0.5,1-0.2,1.4l6.5,8.3h-8.2l0,0h-8.2L16.8,2
	c0.3-0.4,0.3-1.1-0.2-1.4c-0.4-0.3-1.1-0.3-1.4,0.2l-7.3,9.4H4.5c-2.2,0-4,1.8-4,4c0,1.6,0.9,2.9,2.2,3.6l3.2,11.6
	c0.3,1.1,1,2,1.8,2.6c0.7,0.5,1.4,0.7,2.2,0.7h8.5l0,0H27c0.8,0,1.5-0.2,2.2-0.7c0.9-0.6,1.5-1.5,1.8-2.6l3.2-11.6
	c1.3-0.7,2.2-2,2.2-3.6C36.5,12,34.7,10.2,32.5,10.2z M29.1,28.8c-0.2,0.6-0.5,1.2-1,1.5c-0.4,0.2-0.7,0.3-1.1,0.3h-8.5l0,0H10
	c-0.4,0-0.7-0.1-1.1-0.3c-0.5-0.3-0.8-0.8-1-1.5l-3-10.6h13.6l0,0h13.6L29.1,28.8z M32.5,16.2h-14l0,0h-14c-1.1,0-2-0.9-2-2
	s0.9-2,2-2h14l0,0h14c1.1,0,2,0.9,2,2S33.6,16.2,32.5,16.2z"/>
</svg>
