<?xml version="1.0" encoding="utf-8"?>
<!-- Generator: Adobe Illustrator 22.0.0, SVG Export Plug-In . SVG Version: 6.00 Build 0)  -->
<svg version="1.1" id="Capa_1" xmlns="http://www.w3.org/2000/svg" xmlns:xlink="http://www.w3.org/1999/xlink" x="0px" y="0px"
	 viewBox="0 0 500 500" style="enable-background:new 0 0 500 500;" xml:space="preserve">
<g>
	<path d="M429,500H71c-2.1,0-4.1-0.8-5.5-2.3c-1.4-1.5-2.2-3.5-2.1-5.6l17-358c0.2-4,3.5-7.2,7.6-7.2h323.9c4,0,7.4,3.2,7.6,7.2
		l17,358c0.1,2.1-0.7,4.1-2.1,5.6C433,499.2,431,500,429,500z M79,484.8H421L404.7,142H95.3L79,484.8z"/>
	<path d="M331.9,172.3c-4.2,0-7.6-3.4-7.6-7.6V89.5c0-41-33.3-74.3-74.3-74.3s-74.3,33.3-74.3,74.3v75.3c0,4.2-3.4,7.6-7.6,7.6
		c-4.2,0-7.6-3.4-7.6-7.6V89.5C160.5,40.1,200.7,0,250,0s89.5,40.1,89.5,89.5v75.3C339.5,169,336.1,172.3,331.9,172.3z"/>
</g>
</svg>
