<?xml version="1.0" encoding="utf-8"?>
<!-- Generator: Adobe Illustrator 22.1.0, SVG Export Plug-In . SVG Version: 6.00 Build 0)  -->
<svg version="1.1" id="Calque_1" xmlns="http://www.w3.org/2000/svg" xmlns:xlink="http://www.w3.org/1999/xlink" x="0px" y="0px"
	 viewBox="0 0 37 33" style="enable-background:new 0 0 37 33;" xml:space="preserve">
<style type="text/css">
	.st0{fill:#FFFFFF;}
</style>
<g>
	<path class="st0" d="M3.3,19.8l2.6,9.6c0.3,1.1,1,2,1.8,2.6c0.7,0.5,1.4,0.7,2.2,0.7h8.5H27c0.8,0,1.5-0.2,2.2-0.7
		c0.9-0.6,1.5-1.5,1.8-2.6l2.6-9.6H3.3z"/>
	<path class="st0" d="M32.5,10.2h-3.3l-7.4-9.5c-0.3-0.4-1-0.5-1.4-0.2s-0.5,1-0.2,1.4l6.5,8.3h-8.2h-8.2L16.8,2
		c0.3-0.4,0.3-1.1-0.2-1.4c-0.4-0.3-1.1-0.3-1.4,0.2l-7.3,9.4H4.5c-2.2,0-4,1.8-4,4c0,1.6,0.9,2.9,2.2,3.6c0,0,0.7,0.4,2.2,0.4h13.6
		h13.6c1.1,0,2.1-0.4,2.1-0.4c1.3-0.7,2.2-2,2.2-3.6C36.5,12,34.7,10.2,32.5,10.2z"/>
</g>
</svg>
