<?xml version="1.0" encoding="utf-8"?>
<!-- Generator: Adobe Illustrator 22.0.0, SVG Export Plug-In . SVG Version: 6.00 Build 0)  -->
<svg version="1.1" id="Capa_1" xmlns="http://www.w3.org/2000/svg" xmlns:xlink="http://www.w3.org/1999/xlink" x="0px" y="0px"
	 viewBox="0 0 480.3 480.3" style="enable-background:new 0 0 480.3 480.3;" xml:space="preserve">
<g>
	<path d="M254.2,234.1V13.5c0-7.5-6-13.5-13.5-13.5s-13.5,6-13.5,13.5v220.6c-31.3,6.3-55,34-55,67.2c0,33.2,23.7,60.9,55,67.2v98.2
		c0,7.5,6,13.5,13.5,13.5s13.5-6,13.5-13.5v-98.2c31.3-6.3,55-34,55-67.2C309.2,268.2,285.5,240.4,254.2,234.1z"/>
	<path d="M88.8,120.9V13.5C88.8,6,82.8,0,75.3,0S61.8,6,61.8,13.5v107.4c-31.3,6.3-55,34-55,67.2s23.7,60.9,55,67.2v211.4
		c0,7.5,6,13.5,13.5,13.5s13.5-6,13.5-13.5V255.2c31.3-6.3,55-34,55-67.2S120.2,127.2,88.8,120.9z"/>
	<path d="M418.5,120.9V13.5C418.5,6,412.5,0,405,0s-13.5,6-13.5,13.5v107.4c-31.3,6.3-55,34-55,67.2s23.7,60.9,55,67.2v211.5
		c0,7.5,6,13.5,13.5,13.5s13.5-6,13.5-13.5V255.2c31.3-6.3,55-34,55-67.2S449.9,127.2,418.5,120.9z"/>
</g>
</svg>
