<?xml version="1.0" encoding="utf-8"?>
<!-- Generator: Adobe Illustrator 23.0.0, SVG Export Plug-In . SVG Version: 6.00 Build 0)  -->
<svg version="1.1" id="FR_Download_on_the_App_Store"
	 xmlns="http://www.w3.org/2000/svg" xmlns:xlink="http://www.w3.org/1999/xlink" x="0px" y="0px" viewBox="0 0 26.4 29.1"
	 style="enable-background:new 0 0 26.4 29.1;" xml:space="preserve">
<style type="text/css">
	.st0{fill:#FFFFFF;}
</style>
<g>
	<path class="st0" d="M1.5,14.1c0-3.7,0-7.4,0-11.2c0-0.5,0.1-0.9,0.4-1.2c0.1-0.1,0.2-0.2,0.4,0c2.5,2.6,5,5.1,7.5,7.6
		c1.6,1.6,3.2,3.3,4.9,4.9c0.2,0.2,0.2,0.2,0,0.4c-4,4-8,7.9-11.9,11.9c-0.2,0.2-0.4,0.2-0.6,0c-0.4-0.3-0.6-0.8-0.6-1.3
		c0-2.2,0-4.4,0-6.6C1.5,17.2,1.5,15.6,1.5,14.1C1.5,14.1,1.5,14.1,1.5,14.1z"/>
	<path class="st0" d="M2.9,1.3c0.3,0,0.5,0.1,0.7,0.2C8.8,4.3,13.8,7.2,18.9,10c0.2,0.1,0.2,0.2,0,0.4c-1.1,1.1-2.3,2.3-3.4,3.4
		c-0.1,0.1-0.2,0.2-0.4,0C11.2,9.7,7.1,5.6,3.1,1.4C3,1.4,3,1.4,2.9,1.3z"/>
	<path class="st0" d="M4.1,26.5c3.7-3.7,7.4-7.5,11.1-11.2c0.2-0.2,0.3-0.2,0.5,0c0.9,1,1.9,1.9,2.8,2.9c0.2,0.2,0.2,0.2,0,0.4
		c-4.7,2.6-9.5,5.2-14.2,7.8C4.2,26.4,4.1,26.5,4.1,26.5z"/>
	<path class="st0" d="M25.2,14.2c0,0.4-0.2,0.7-0.5,0.9c-0.2,0.2-0.5,0.3-0.7,0.4c-1.4,0.8-2.9,1.6-4.3,2.4
		c-0.2,0.1-0.3,0.1-0.5-0.1c-1-1.1-2-2.1-3.1-3.1c-0.2-0.2-0.2-0.2,0-0.4c1.2-1.2,2.4-2.4,3.6-3.6c0.1-0.1,0.2-0.2,0.4-0.1
		c1.4,0.8,2.8,1.6,4.3,2.4C24.8,13.3,25.2,13.7,25.2,14.2z"/>
</g>
</svg>
