<?xml version="1.0" encoding="utf-8"?>
<!-- Generator: Adobe Illustrator 22.1.0, SVG Export Plug-In . SVG Version: 6.00 Build 0)  -->
<svg version="1.1" id="Calque_1" xmlns="http://www.w3.org/2000/svg" xmlns:xlink="http://www.w3.org/1999/xlink" x="0px" y="0px"
	 viewBox="0 0 22 20" style="enable-background:new 0 0 22 20;" xml:space="preserve">
<style type="text/css">
	.st0{fill:#FFFFFF;}
</style>
<title>Shape</title>
<desc>Created with Sketch Beta.</desc>
<g id="Symbols">
	<g id="Explore---Restaurant" transform="translate(-319.000000, -14.000000)">
		<path class="st0" d="M330,33.8c-0.2,0-0.4-0.1-0.5-0.2l-8.5-8.7c-2.3-2.4-2.3-6.3,0-8.7c1.1-1.2,2.7-1.8,4.3-1.8c0,0,0,0,0,0
			c1.6,0,3.1,0.6,4.3,1.8l0.5,0.5l0.5-0.5c1.1-1.2,2.7-1.8,4.3-1.8c1.6,0,3.1,0.7,4.3,1.8l0,0c1.1,1.2,1.8,2.7,1.8,4.4
			s-0.6,3.2-1.8,4.4l-8.5,8.7C330.4,33.7,330.2,33.8,330,33.8z M325.3,15.8c-1.2,0-2.3,0.5-3.2,1.4c-1.8,1.8-1.8,4.8,0,6.6l7.9,8.2
			l7.9-8.2c0.8-0.9,1.3-2.1,1.3-3.3s-0.5-2.4-1.3-3.3l0,0c-0.8-0.9-2-1.4-3.2-1.4c-1.2,0-2.3,0.5-3.2,1.4l-1,1
			c-0.3,0.3-0.8,0.3-1.1,0l-1-1C327.6,16.2,326.5,15.8,325.3,15.8L325.3,15.8z"/>
	</g>
</g>
</svg>
