<?xml version="1.0" encoding="utf-8"?>
<!-- Generator: Adobe Illustrator 22.1.0, SVG Export Plug-In . SVG Version: 6.00 Build 0)  -->
<svg version="1.1" id="Calque_1" xmlns="http://www.w3.org/2000/svg" xmlns:xlink="http://www.w3.org/1999/xlink" x="0px" y="0px"
	 viewBox="0 0 90 142" style="enable-background:new 0 0 90 142;" xml:space="preserve">
<style type="text/css">
	.st0{fill:#96CFEE;}
</style>
<g>
	<g>
		<path class="st0" d="M45,100.7c-6.5,0-11.7,5.2-11.7,11.7c0,6.5,5.2,11.7,11.7,11.7c6.5,0,11.7-5.2,11.7-11.7
			C56.7,106,51.4,100.7,45,100.7z M45,117.6c-2.9,0-5.2-2.3-5.2-5.2c0-2.9,2.3-5.2,5.2-5.2c2.9,0,5.2,2.3,5.2,5.2
			C50.2,115.3,47.9,117.6,45,117.6z"/>
		<path class="st0" d="M72.6,100.7c-6.8-0.5-12.5,4.9-12.6,11.6l0,0v0.1l0,0l0,0l0,8.6l0.1,15.9c0,1.8,1.5,3.2,3.3,3.2h0
			c1.8,0,3.3-1.5,3.3-3.3v-14c1.6,0.8,3.3,1.2,5.2,1.2c6.7,0,12.2-5.7,11.7-12.5C83.1,105.8,78.4,101.2,72.6,100.7z M71.8,117.6
			c-2.9,0-5.2-2.3-5.2-5.2c0-2.9,2.3-5.2,5.2-5.2c2.9,0,5.2,2.3,5.2,5.2C77,115.3,74.7,117.6,71.8,117.6z"/>
		<path class="st0" d="M19.6,100.8c-2.4-0.3-4.6,0.2-6.6,1.1l0-14c0-1.8-1.5-3.3-3.3-3.3h0c-1.8,0-3.3,1.5-3.3,3.3v24.5v8.4
			c0,1.8,1.5,3.3,3.3,3.3h0c1.8,0,3.3-1.5,3.3-3.3l0-8.4c0-2.8,2.2-5.2,4.9-5.3c3-0.1,5.4,2.2,5.4,5.2v8.5c0,1.8,1.5,3.2,3.2,3.2h0
			c1.8,0,3.2-1.5,3.2-3.2v-8.3C29.9,106.7,25.5,101.5,19.6,100.8z"/>
	</g>
	<g>
		<path class="st0" d="M64.1,39c0.2,1.1-0.5,2.1-1.6,2.1c-0.8,0-1.5-0.5-1.7-1.3c-0.2-1.1,0.5-2.1,1.6-2.1
			C63.2,37.7,63.9,38.2,64.1,39"/>
		<path class="st0" d="M44.8,1.2C20.5,1.2,0.9,21,0.9,45.3c0,10.5,3.8,20.2,9.9,27.7c1.6-2.4,3.5-4.9,5.5-7.3
			c-0.1,0-0.2,0.1-0.3,0.1c-1.6,0.2-3.1-0.9-3.3-2.5c-0.2-1.6,0.9-3.1,2.5-3.3c1.6-0.2,3.1,0.9,3.3,2.5c0,0.2,0,0.4,0,0.6
			c5.2-6.1,11.4-11.5,16.6-14.6c0,0,4.7-2.3,5.3-2.4c0.3-0.1-3.7,0.1-5.2,0.1c-2,0-5.2,0-6.6-0.2c-4.9-0.6-17.5-4.6-13-6.7
			c4.7-2.2,17.1-2.3,20.3-2.4c1.6-0.1,6,0.5,5.8,0.3c-1.5-1.2-12.2-0.8-19.2-6.1c-1.8-1.4-1.4-3.7,1.4-3.8
			c10.1-0.1,17.4-0.3,26.4,3.6c0,0,0,0,0,0c2.5,1.2,2.9,1.5,4.3,1.3c7.5-0.9,13.6,2,17.1,7.7c1.4,2.3,0.7,3.1-0.9,5.6
			C68.7,49,60.8,50,59,49.7c-0.1,0,0.1,1.1,0.1,1.1c2.9-0.3,9,0,11.7,0.6c1.1,0.3,2.6,0.9,2.5,2.9c-0.1,1.9-2.3,2.9-3.1,2.9
			c-15.1-0.5-34.8,9.1-50,19.1c-1,0.7-2.4,1.5-3.8,2.5c7.7,6.5,17.7,10.4,28.5,10.4c24.3-0.1,44-19.8,43.9-44.2
			C88.9,20.8,69.2,1.1,44.8,1.2"/>
	</g>
	<path class="st0" d="M86.1,95.5c-1.4,0-2.6,1.2-2.6,2.6s1.2,2.6,2.6,2.6s2.6-1.2,2.6-2.6S87.5,95.5,86.1,95.5z M88.4,98.1
		c0,1.3-1,2.3-2.3,2.3c-1.3,0-2.3-1-2.3-2.3c0-1.3,1-2.3,2.3-2.3C87.3,95.8,88.4,96.8,88.4,98.1z"/>
	<path class="st0" d="M87.2,99.3l-0.3-0.7c-0.1-0.1-0.1-0.3-0.2-0.3c0-0.1-0.1-0.1-0.1-0.1c0.1-0.1,0.2-0.1,0.3-0.2
		c0.1-0.1,0.1-0.3,0.1-0.4c0-0.2-0.1-0.4-0.2-0.5c-0.2-0.1-0.4-0.2-0.7-0.2h-0.6c-0.1,0-0.1,0-0.1,0c0,0,0,0.1,0,0.1v2.5
		c0,0,0,0.1,0.2,0.1h0c0.2,0,0.2-0.1,0.2-0.1v-1H86c0.1,0,0.3,0,0.3,0.1c0.1,0,0.1,0.1,0.2,0.3l0.3,0.7c0,0,0,0.1,0.1,0.1
		c0,0,0.1,0,0.1,0h0C87.1,99.5,87.2,99.5,87.2,99.3C87.2,99.3,87.2,99.3,87.2,99.3z M86.6,97.5c0,0.1,0,0.1-0.1,0.2
		c0,0.1-0.1,0.1-0.2,0.2c-0.1,0-0.1,0.1-0.2,0.1h-0.5v-0.8h0.4c0.1,0,0.3,0,0.3,0.1C86.5,97.3,86.6,97.4,86.6,97.5z"/>
</g>
</svg>
