<?xml version="1.0" encoding="utf-8"?>
<!-- Generator: Adobe Illustrator 23.0.0, SVG Export Plug-In . SVG Version: 6.00 Build 0)  -->
<svg version="1.1" id="Calque_1" xmlns="http://www.w3.org/2000/svg" xmlns:xlink="http://www.w3.org/1999/xlink" x="0px" y="0px"
	 viewBox="0 0 90 90" style="enable-background:new 0 0 90 90;" xml:space="preserve">
<style type="text/css">
	.st0{fill:#FFFFFF;}
</style>
<g>
	<path class="st0" d="M64.5,38.6c0.2,1.1-0.6,2.1-1.7,2.1c-0.8,0-1.6-0.6-1.7-1.4c-0.2-1.1,0.6-2.1,1.7-2.1
		C63.5,37.3,64.3,37.8,64.5,38.6"/>
	<path class="st0" d="M44.8,0C20,0-0.1,20.2,0,45.1c0,10.8,3.8,20.6,10.2,28.3c1.7-2.4,3.6-5,5.6-7.5c-0.1,0-0.2,0.1-0.4,0.1
		c-1.6,0.2-3.1-0.9-3.4-2.5c-0.2-1.6,0.9-3.1,2.5-3.4c1.6-0.2,3.1,0.9,3.4,2.5c0,0.2,0,0.4,0,0.6c5.3-6.3,11.7-11.7,17-14.9
		c0,0,4.8-2.3,5.4-2.4c0.3-0.1-3.8,0.1-5.3,0.1c-2.1,0-5.3,0-6.7-0.2c-5-0.6-17.9-4.7-13.3-6.8c4.8-2.2,17.5-2.4,20.8-2.5
		c1.6-0.1,6.1,0.5,5.9,0.3C40,35.6,29.1,36.1,22,30.6c-1.9-1.4-1.4-3.8,1.4-3.8c10.3-0.2,17.8-0.3,27,3.7l0,0
		c2.5,1.3,2.9,1.5,4.4,1.3c7.7-0.9,13.9,2,17.5,7.9c1.4,2.4,0.7,3.1-0.9,5.7c-2.2,3.5-10.2,4.5-12,4.2c-0.1,0,0.1,1.1,0.1,1.1
		c2.9-0.3,9.2,0,12,0.7c1.1,0.3,2.7,0.9,2.6,3c-0.1,2-2.3,3-3.1,3c-15.4-0.5-35.5,9.3-51.1,19.5c-1,0.7-2.4,1.6-3.9,2.6
		C23.8,86,34,90,45.1,90C69.9,89.9,90,69.7,90,44.8C89.9,20,69.7-0.1,44.8,0"/>
</g>
</svg>
