<?xml version="1.0" encoding="utf-8"?>
<!-- Generator: Adobe Illustrator 22.0.0, SVG Export Plug-In . SVG Version: 6.00 Build 0)  -->
<svg version="1.1" id="Capa_1" xmlns="http://www.w3.org/2000/svg" xmlns:xlink="http://www.w3.org/1999/xlink" x="0px" y="0px"
	 viewBox="0 0 500 500" style="enable-background:new 0 0 500 500;" xml:space="preserve">
<style type="text/css">
	.st0{display:none;}
	.st1{display:inline;}
	.st2{fill:none;}
</style>
<g class="st0">
	<g id="drive-form" class="st1">
		<path d="M444.4,0H55.6C25,0,0,25,0,55.6v388.9C0,475,25,500,55.6,500h388.9c30.6,0,55.6-25,55.6-55.6V55.6C500,25,475,0,444.4,0z
			 M166.7,388.9h-55.6v-55.6h55.6V388.9z M166.7,277.8h-55.6v-55.6h55.6V277.8z M166.7,166.7h-55.6v-55.6h55.6V166.7z M388.9,388.9
			H194.4v-55.6h194.4L388.9,388.9L388.9,388.9z M388.9,277.8H194.4v-55.6h194.4L388.9,277.8L388.9,277.8z M388.9,166.7H194.4v-55.6
			h194.4L388.9,166.7L388.9,166.7z"/>
	</g>
</g>
<g>
	<rect x="201.8" y="340.2" class="st2" width="179.8" height="41.7"/>
	<rect x="201.8" y="229.1" class="st2" width="179.8" height="41.7"/>
	<rect x="118" y="118" class="st2" width="41.7" height="41.7"/>
	<rect x="118" y="229.1" class="st2" width="41.7" height="41.7"/>
	<rect x="118" y="340.2" class="st2" width="41.7" height="41.7"/>
	<rect x="201.8" y="118" class="st2" width="179.8" height="41.7"/>
	<path class="st2" d="M436.5,13.4h-373c-27.6,0-50.1,22.5-50.1,50.1v373c0,27.6,22.5,50.1,50.1,50.1h373c27.6,0,50.1-22.5,50.1-50.1
		v-373C486.6,35.9,464.1,13.4,436.5,13.4z M168.2,390.4h-58.6v-58.6h58.6V390.4z M168.2,279.3h-58.6v-58.6h58.6V279.3z M168.2,168.2
		h-58.6v-58.6h58.6V168.2z M390.4,390.4H192.9v-58.6h197.4V390.4z M390.4,279.3H192.9v-58.6h197.4V279.3z M390.4,168.2H192.9v-58.6
		h197.4V168.2z"/>
	<path d="M436.5,3.5h-373c-33.1,0-60,26.9-60,60v373c0,33.1,26.9,60,60,60h373c33.1,0,60-26.9,60-60v-373
		C496.5,30.4,469.6,3.5,436.5,3.5z M486.6,63.5v373c0,27.6-22.5,50.1-50.1,50.1h-373c-27.6,0-50.1-22.5-50.1-50.1v-373
		c0-27.6,22.5-50.1,50.1-50.1h373C464.1,13.4,486.6,35.9,486.6,63.5z"/>
	<path d="M109.6,168.2h58.6v-58.6h-58.6V168.2z M159.8,118v41.7H118V118H159.8z"/>
	<path d="M192.9,168.2h197.4v-58.6H192.9V168.2z M381.6,118v41.7H201.8V118H381.6z"/>
	<path d="M109.6,279.3h58.6v-58.6h-58.6V279.3z M159.8,229.1v41.7H118v-41.7H159.8z"/>
	<path d="M192.9,279.3h197.4v-58.6H192.9V279.3z M381.6,229.1v41.7H201.8v-41.7H381.6z"/>
	<path d="M109.6,390.4h58.6v-58.6h-58.6V390.4z M159.8,340.2V382H118v-41.7H159.8z"/>
	<path d="M192.9,390.4h197.4v-58.6H192.9V390.4z M381.6,340.2V382H201.8v-41.7H381.6z"/>
</g>
</svg>
