<?xml version="1.0" encoding="iso-8859-1"?>
<!-- Generator: Adobe Illustrator 22.0.0, SVG Export Plug-In . SVG Version: 6.00 Build 0)  -->
<svg version="1.1" id="Capa_1" xmlns="http://www.w3.org/2000/svg" xmlns:xlink="http://www.w3.org/1999/xlink" x="0px" y="0px"
	 viewBox="0 0 500 500" style="enable-background:new 0 0 500 500;" xml:space="preserve">
<g>
	<g id="drive-form">
		<path d="M444.444,0H55.556C25,0,0,25,0,55.556v388.889C0,475,25,500,55.556,500h388.889C475,500,500,475,500,444.444V55.556
			C500,25,475,0,444.444,0z M166.667,388.889h-55.556v-55.556h55.556V388.889z M166.667,277.778h-55.556v-55.556h55.556V277.778z
			 M166.667,166.667h-55.556v-55.556h55.556V166.667z M388.889,388.889H194.444v-55.556h194.444V388.889z M388.889,277.778H194.444
			v-55.556h194.444V277.778z M388.889,166.667H194.444v-55.556h194.444V166.667z"/>
	</g>
</g>
</svg>
