<?xml version="1.0" encoding="utf-8"?>
<!-- Generator: Adobe Illustrator 22.0.0, SVG Export Plug-In . SVG Version: 6.00 Build 0)  -->
<svg version="1.1" id="Layer_1" xmlns="http://www.w3.org/2000/svg" xmlns:xlink="http://www.w3.org/1999/xlink" x="0px" y="0px"
	 viewBox="0 0 258.8 258.8" style="enable-background:new 0 0 258.8 258.8;" xml:space="preserve">
<g>
	<path d="M129.4,124.9c-34.2,0-61.9-27.8-61.9-61.9C67.4,28.8,95.2,1,129.4,1s61.9,27.8,61.9,61.9
		C191.3,97.1,163.5,124.9,129.4,124.9z M129.4,10C100.2,10,76.4,33.8,76.4,63s23.8,52.9,52.9,52.9c29.2,0,52.9-23.8,52.9-52.9
		S158.6,10,129.4,10z"/>
</g>
<g>
	<path d="M238,257.7H20.8v-4.5c0-59.9,48.7-108.6,108.6-108.6c59.9,0,108.6,48.7,108.6,108.6V257.7z M29.9,248.7h199
		c-2.4-52.9-46.1-95.1-99.5-95.1S32.2,195.9,29.9,248.7z"/>
</g>
</svg>
