<?xml version="1.0" encoding="utf-8"?>
<!-- Generator: Adobe Illustrator 23.0.0, SVG Export Plug-In . SVG Version: 6.00 Build 0)  -->
<svg version="1.1" id="Calque_1" xmlns="http://www.w3.org/2000/svg" xmlns:xlink="http://www.w3.org/1999/xlink" x="0px" y="0px"
	 viewBox="0 0 14 14" style="enable-background:new 0 0 14 14;" xml:space="preserve">
<style type="text/css">
	.st0{fill:#96CFEE;}
</style>
<title>Icon</title>
<desc>Created with Sketch Beta.</desc>
<path class="st0" d="M12.2,1.9C9.9-0.3,6.4-0.6,4,1.6S1.4,7.4,3.5,9.8l-3.3,3.3C0,13.2,0,13.4,0,13.6s0.2,0.3,0.4,0.4
	c0.2,0,0.4,0,0.5-0.1l3.3-3.3c2.4,2,6.1,1.8,8.2-0.5C14.5,7.8,14.5,4.1,12.2,1.9z M8,11.1c-2.8,0-5.1-2.3-5.1-5.1
	c0-2.8,2.3-5.1,5.1-5.1c2.8,0,5.1,2.3,5.1,5.1C13.1,8.9,10.8,11.1,8,11.1z"/>
</svg>
