<?xml version="1.0" encoding="utf-8"?>
<!-- Generator: Adobe Illustrator 22.0.0, SVG Export Plug-In . SVG Version: 6.00 Build 0)  -->
<svg version="1.1" id="Capa_1" xmlns="http://www.w3.org/2000/svg" xmlns:xlink="http://www.w3.org/1999/xlink" x="0px" y="0px"
	 viewBox="0 0 512 512" style="enable-background:new 0 0 512 512;" xml:space="preserve">
<style type="text/css">
	.st0{fill:#474747;}
	.st1{fill:#272727;}
</style>
<path class="st0" d="M268.8,0C159.3,0,70.2,89.1,70.2,198.6c0,68,32.3,141.1,96.1,217.3c47,56.1,93.2,92.1,95.2,93.6
	c2.1,1.7,4.7,2.5,7.3,2.5c2.6,0,5.1-0.8,7.3-2.5c1.9-1.5,48.2-37.6,95.2-93.6c63.8-76.2,96.1-149.3,96.1-217.3
	C467.4,89.1,378.3,0,268.8,0z M343.3,198.6c0,41.1-33.3,74.5-74.5,74.5c-41.1,0-74.5-33.3-74.5-74.5s33.3-74.5,74.5-74.5
	C310,124.1,343.3,157.5,343.3,198.6z"/>
<path class="st1" d="M268.8,0c-7.6,0-15,0.4-22.4,1.3c99,11.2,176.2,95.4,176.2,197.3c0,68-32.3,141.1-96.1,217.3
	c-31.3,37.4-62.3,65.9-80.1,81.2c8.9,7.6,14.5,12,15.1,12.5c2.1,1.7,4.7,2.5,7.3,2.5s5.1-0.8,7.3-2.5c1.9-1.5,48.2-37.6,95.2-93.6
	c63.8-76.2,96.1-149.3,96.1-217.3C467.4,89.1,378.3,0,268.8,0z"/>
</svg>
