<?xml version="1.0" encoding="utf-8"?>
<!-- Generator: Adobe Illustrator 22.0.0, SVG Export Plug-In . SVG Version: 6.00 Build 0)  -->
<svg version="1.1" id="Layer_1" xmlns="http://www.w3.org/2000/svg" xmlns:xlink="http://www.w3.org/1999/xlink" x="0px" y="0px"
	 viewBox="0 0 512 512" style="enable-background:new 0 0 512 512;" xml:space="preserve">
<g>
	<path d="M348.7,185.9c-1.9-5.2-4.9-9.8-8.9-13.7c-3.8-3.9-8.5-7-13.7-8.9c-4.2-1.6-10.5-3.6-22.1-4.1c-12.5-0.6-16.3-0.7-48-0.7
		c-31.7,0-35.5,0.1-48,0.7c-11.6,0.5-17.9,2.5-22.1,4.1c-5.2,1.9-9.8,4.9-13.7,8.9c-3.9,3.8-7,8.5-8.9,13.7
		c-1.6,4.2-3.6,10.5-4.1,22.1c-0.6,12.5-0.7,16.3-0.7,48c0,31.7,0.1,35.5,0.7,48c0.5,11.6,2.5,17.9,4.1,22.1
		c1.9,5.2,4.9,9.8,8.9,13.7c3.8,3.9,8.5,7,13.7,8.9c4.2,1.6,10.5,3.6,22.1,4.1c12.5,0.6,16.3,0.7,48,0.7c31.7,0,35.5-0.1,48-0.7
		c11.6-0.5,17.9-2.5,22.1-4.1c10.4-4,18.6-12.2,22.6-22.6c1.6-4.2,3.6-10.5,4.1-22.1c0.6-12.5,0.7-16.3,0.7-48
		c0-31.7-0.1-35.5-0.7-48C352.2,196.4,350.3,190.1,348.7,185.9z M256,317c-33.7,0-61.1-27.3-61.1-61s27.3-61,61.1-61
		c33.7,0,61,27.3,61,61S289.7,317,256,317z M319.5,206.8c-7.9,0-14.3-6.4-14.3-14.3s6.4-14.3,14.3-14.3s14.3,6.4,14.3,14.3
		C333.7,200.4,327.3,206.8,319.5,206.8z"/>
	<circle cx="256" cy="256" r="39.6"/>
	<path d="M256,5C117.4,5,5,117.4,5,256s112.4,251,251,251s251-112.4,251-251S394.6,5,256,5z M374.2,305c-0.6,12.7-2.6,21.3-5.5,28.9
		c-6.2,16-18.8,28.6-34.8,34.8c-7.6,2.9-16.2,4.9-28.9,5.5c-12.7,0.6-16.7,0.7-49,0.7c-32.3,0-36.3-0.1-49-0.7
		c-12.7-0.6-21.3-2.6-28.9-5.5c-7.9-3-15.1-7.7-21.1-13.7c-6-5.9-10.7-13.1-13.7-21.1c-2.9-7.6-5-16.2-5.5-28.9
		c-0.6-12.7-0.7-16.7-0.7-49s0.1-36.3,0.7-49c0.6-12.7,2.6-21.3,5.5-28.9c3-7.9,7.7-15.1,13.7-21.1c5.9-6,13.1-10.7,21.1-13.7
		c7.6-2.9,16.2-4.9,28.9-5.5c12.7-0.6,16.7-0.7,49-0.7s36.3,0.1,49,0.7c12.7,0.6,21.3,2.6,28.9,5.5c7.9,3,15.1,7.7,21.1,13.7
		c6,5.9,10.7,13.1,13.7,21.1c2.9,7.6,5,16.2,5.5,28.9c0.6,12.7,0.7,16.7,0.7,49S374.7,292.3,374.2,305z"/>
</g>
</svg>
