<?xml version="1.0" encoding="utf-8"?>
<!-- Generator: Adobe Illustrator 22.0.0, SVG Export Plug-In . SVG Version: 6.00 Build 0)  -->
<svg version="1.1" id="Capa_1" xmlns="http://www.w3.org/2000/svg" xmlns:xlink="http://www.w3.org/1999/xlink" x="0px" y="0px"
	 viewBox="0 0 369.9 369.9" style="enable-background:new 0 0 369.9 369.9;" xml:space="preserve">
<g>
	<path d="M185.3,327c-78.3,0-142-63.7-142-142c0-78.3,63.7-142,142-142c35.7,0,69.9,13.4,96.2,37.7c26.1,24.2,42.2,56.9,45.2,92.2
		l0.4,4.3H181.2l14.8-14.8c1.7-1.7,2.6-3.9,2.6-6.2c0-2.3-0.9-4.6-2.6-6.2c-1.7-1.7-3.9-2.6-6.2-2.6s-4.6,0.9-6.2,2.6l-29.8,29.8
		l-1.1,1.2l-0.1,0l-5,5l5,5h0.2l1.1,1.3l31.9,31.9c1.7,1.7,3.9,2.6,6.2,2.6s4.6-0.9,6.2-2.6c1.7-1.7,2.6-3.9,2.6-6.2
		c0-2.3-0.9-4.6-2.6-6.2l-17-17H327l-0.4,4.4c-3.5,34.8-19.7,67-45.8,90.7C254.6,313.8,220.7,327,185.3,327z M185.3,51
		c-73.9,0-134,60.1-134,134c0,73.9,60.1,134,134,134c67.6,0,124-49.6,132.8-116.1H200.5l3.3,3.3c3.2,3.2,4.9,7.4,4.9,11.9
		c0,4.5-1.7,8.7-4.9,11.9c-3.2,3.2-7.4,4.9-11.9,4.9c-4.5,0-8.7-1.7-11.9-4.9l-31.5-31.5l-0.1-0.1l-0.4-0.5L136.2,186l41.7-41.7
		c3.2-3.2,7.4-4.9,11.9-4.9c4.5,0,8.7,1.7,11.9,4.9c3.2,3.2,4.9,7.4,4.9,11.9c0,4.5-1.7,8.7-4.9,11.9l-1.2,1.2h117.8
		C310.4,102.6,252.8,51,185.3,51z"/>
</g>
<g>
	<path d="M185,368.6C83.7,368.6,1.3,286.2,1.3,185S83.7,1.3,185,1.3S368.6,83.7,368.6,185S286.3,368.6,185,368.6z M185,9.3
		C88.1,9.3,9.3,88.1,9.3,185c0,96.9,78.8,175.7,175.7,175.7c96.9,0,175.7-78.8,175.7-175.7C360.6,88.1,281.8,9.3,185,9.3z"/>
</g>
</svg>
