<?xml version="1.0" encoding="utf-8"?>
<!-- Generator: Adobe Illustrator 22.0.0, SVG Export Plug-In . SVG Version: 6.00 Build 0)  -->
<svg version="1.1" id="Layer_1" xmlns="http://www.w3.org/2000/svg" xmlns:xlink="http://www.w3.org/1999/xlink" x="0px" y="0px"
	 viewBox="0 0 434 434" style="enable-background:new 0 0 434 434;" xml:space="preserve">
<path d="M387,70H47C21.1,70,0,91.1,0,117v200c0,25.9,21.1,47,47,47h340c25.9,0,47-21.1,47-47V117C434,91.1,412.9,70,387,70z
	 M14,146.5h406v29.1H14V146.5z M47,84h340c18.2,0,33,14.8,33,33v15.5H14V117C14,98.8,28.8,84,47,84z M387,350H47
	c-18.2,0-33-14.8-33-33V189.5h406V317C420,335.2,405.2,350,387,350z"/>
<path d="M345.2,229.4c-7.3,0-14.5,1.7-21,5.1c-19.3-9.9-42.8-5-56.5,11.8c-13.7,16.8-13.7,40.9,0,57.7
	c13.7,16.8,37.3,21.7,56.5,11.8c16.9,8.7,37.4,6.1,51.5-6.5c14.2-12.6,19-32.7,12.3-50.4S364.1,229.4,345.2,229.4z M271.4,275.2
	c0-17.5,14.2-31.8,31.8-31.8s31.8,14.2,31.8,31.8s-14.2,31.8-31.8,31.8C285.6,306.9,271.4,292.7,271.4,275.2z M345.2,306.9
	c-2.7,0-5.4-0.4-8.1-1.1c15.8-17.4,15.8-44,0-61.4c11.9-3.1,24.6,0.9,32.5,10.4s9.6,22.6,4.4,33.8
	C368.7,299.8,357.5,306.9,345.2,306.9z"/>
</svg>
