<?xml version="1.0" encoding="utf-8"?>
<!-- Generator: Adobe Illustrator 22.0.0, SVG Export Plug-In . SVG Version: 6.00 Build 0)  -->
<svg version="1.1" id="Layer_1" xmlns="http://www.w3.org/2000/svg" xmlns:xlink="http://www.w3.org/1999/xlink" x="0px" y="0px"
	 viewBox="0 0 406 406" style="enable-background:new 0 0 406 406;" xml:space="preserve">
<path d="M331.2,292.9c12.3,0,23.6-7.1,28.8-18.3c5.2-11.2,3.5-24.4-4.4-33.8c-7.9-9.5-20.6-13.5-32.5-10.4c15.8,17.4,15.8,44,0,61.4
	C325.7,292.6,328.4,292.9,331.2,292.9z"/>
<path d="M289.2,292.9c17.5,0,31.8-14.2,31.8-31.8c0-17.5-14.2-31.8-31.8-31.8c-17.5,0-31.8,14.2-31.8,31.8c0,8.4,3.3,16.5,9.3,22.5
	C272.6,289.6,280.7,293,289.2,292.9z"/>
<path d="M0,303c0,18.2,14.8,33,33,33h340c18.2,0,33-14.8,33-33V175.5H0V303z M289.2,215.4c7.3,0,14.5,1.7,21,5.1
	c19.3-9.9,42.9-5,56.5,11.8c13.7,16.8,13.7,40.9,0,57.7c-13.7,16.8-37.3,21.7-56.5,11.8c-16.9,8.7-37.4,6.1-51.5-6.5
	c-14.2-12.6-19-32.7-12.3-50.4S270.2,215.4,289.2,215.4z"/>
<path d="M0,132.5h406v29.1H0V132.5z"/>
<path d="M373,70H33C14.8,70,0,84.8,0,103v15.5h406V103C406,84.8,391.2,70,373,70z"/>
</svg>
